<svg width="20" height="18" viewBox="0 0 20 18" fill="none" xmlns="http://www.w3.org/2000/svg">
<path d="M19.75 1.41536C19.75 0.817056 19.265 0.332031 18.6667 0.332031H1.33333C0.735025 0.332031 0.25 0.817056 0.25 1.41536C0.25 2.01367 0.735023 2.4987 1.33333 2.4987H18.6667C19.265 2.4987 19.75 2.01367 19.75 1.41536ZM19.75 8.9987C19.75 8.40039 19.265 7.91536 18.6667 7.91536H7.83333C7.23502 7.91536 6.75 8.40039 6.75 8.9987C6.75 9.59701 7.23502 10.082 7.83333 10.082H18.6667C19.265 10.082 19.75 9.59701 19.75 8.9987ZM19.75 16.582C19.75 15.9837 19.265 15.4987 18.6667 15.4987H1.33333C0.735025 15.4987 0.25 15.9837 0.25 16.582C0.25 17.1803 0.735023 17.6654 1.33333 17.6654H18.6667C19.265 17.6654 19.75 17.1803 19.75 16.582Z" fill="white"/>
</svg>
